<?xml version="1.0" standalone="no"?>
<!DOCTYPE svg PUBLIC "-//W3C//DTD SVG 20010904//EN"
 "http://www.w3.org/TR/2001/REC-SVG-20010904/DTD/svg10.dtd">
<svg version="1.0" xmlns="http://www.w3.org/2000/svg"
 width="300.000000pt" height="300.000000pt" viewBox="0 0 300.000000 300.000000"
 preserveAspectRatio="xMidYMid meet">
<metadata>
Created by potrace 1.14, written by Peter Selinger 2001-2017
</metadata>
<g transform="translate(0.000000,300.000000) scale(0.100000,-0.100000)"
fill="#000000" stroke="none">
<path d="M190 2983 c-63 -23 -151 -113 -173 -177 -16 -45 -17 -157 -17 -1307
0 -1233 0 -1259 20 -1312 23 -61 82 -127 143 -159 l42 -23 1277 -3 c1257 -2
1277 -2 1330 18 62 23 128 82 160 143 l23 42 3 1274 c3 1458 10 1335 -87 1432
-97 97 24 89 -1415 88 -1124 0 -1266 -2 -1306 -16z m1054 -1051 l176 -269 0
-106 0 -107 -182 -275 -183 -275 -73 0 c-66 0 -72 2 -63 18 5 9 102 155 215
325 113 169 206 311 206 315 0 5 -94 149 -210 321 -116 172 -210 315 -210 317
0 2 33 4 74 4 l74 0 176 -268z m836 263 c0 -3 -92 -142 -205 -309 -113 -167
-207 -311 -211 -319 -3 -9 75 -136 208 -334 117 -175 215 -321 216 -325 2 -5
-29 -8 -70 -8 l-73 1 -182 274 -183 275 0 108 0 108 176 267 176 267 74 0 c41
0 74 -2 74 -5z"/>
</g>
</svg>
