<svg width="436" height="551" viewBox="0 0 436 551" fill="none" xmlns="http://www.w3.org/2000/svg">
<g clip-path="url(#clip0_350_4365)">
<path d="M53.6 48V50.9804V53.9608V56.9412V59.9216V62.902V65.8824V68.8627V71.8431V74.8235H56.5778H59.5556H62.5333H65.5111H68.4889H71.4667H74.4444H77.4222H80.4H83.3778H86.3556H89.3333H92.3111H95.2889H98.2667H101.244H104.222H107.2V71.8431V68.8627V65.8824V62.902V59.9216V56.9412V53.9608V50.9804V48H104.222H101.244H98.2667H95.2889H92.3111H89.3333H86.3556H83.3778H80.4H77.4222H74.4444H71.4667H68.4889H65.5111H62.5333H59.5556H56.5778H53.6ZM53.6 74.8235H50.6222H47.6444H44.6667H41.6889H38.7111H35.7333H32.7556H29.7778H26.8V77.8039V80.7843V83.7647V86.7451V89.7255V92.7059V95.6863V98.6667V101.647H29.7778H32.7556H35.7333H38.7111H41.6889H44.6667H47.6444H50.6222H53.6V98.6667V95.6863V92.7059V89.7255V86.7451V83.7647V80.7843V77.8039V74.8235ZM26.8 101.647H23.8222H20.8444H17.8667H14.8889H11.9111H8.93333H5.95556H2.97778H0V104.627V107.608V110.588V113.569V116.549V119.529V122.51V125.49V128.471V131.451V134.431V137.412V140.392V143.373V146.353V149.333V152.314V155.294V158.275V161.255V164.235V167.216V170.196V173.176V176.157V179.137V182.118H2.97778H5.95556H8.93333H11.9111H14.8889H17.8667H20.8444H23.8222H26.8V179.137V176.157V173.176V170.196V167.216V164.235V161.255V158.275V155.294V152.314V149.333V146.353V143.373V140.392V137.412V134.431V131.451V128.471V125.49V122.51V119.529V116.549V113.569V110.588V107.608V104.627V101.647ZM0 205.961V208.941V211.922V214.902V217.882V220.863V223.843V226.824V229.804V232.784V235.765V238.745V241.725V244.706V247.686V250.667V253.647V256.627V259.608V262.588V265.569V268.549V271.529V274.51V277.49V280.471V283.451V286.431V289.412V292.392V295.373V298.353V301.333V304.314V307.294V310.275V313.255V316.235V319.216V322.196V325.176V328.157V331.137V334.118V337.098V340.078V343.059V346.039V349.02V352V354.98V357.961V360.941V363.922V366.902V369.882H2.97778H5.95556H8.93333H11.9111H14.8889H17.8667H20.8444H23.8222H26.8V366.902V363.922V360.941V357.961V354.98V352V349.02V346.039V343.059V340.078V337.098V334.118V331.137V328.157V325.176V322.196V319.216V316.235V313.255V310.275V307.294V304.314V301.333V298.353V295.373V292.392V289.412V286.431V283.451V280.471V277.49V274.51V271.529V268.549V265.569V262.588V259.608V256.627V253.647V250.667V247.686V244.706V241.725V238.745V235.765V232.784V229.804H23.8222H20.8444H17.8667V226.824V223.843V220.863V217.882H14.8889H11.9111H8.93333V214.902V211.922V208.941V205.961H5.95556H2.97778H0ZM26.8 369.882V372.863V375.843V378.824V381.804V384.784V387.765V390.745V393.725V396.706V399.686V402.667V405.647V408.627V411.608V414.588V417.569V420.549V423.529H29.7778H32.7556H35.7333H38.7111H41.6889H44.6667H47.6444H50.6222H53.6V420.549V417.569V414.588V411.608V408.627V405.647V402.667V399.686V396.706V393.725V390.745V387.765V384.784V381.804V378.824V375.843V372.863V369.882H50.6222H47.6444H44.6667H41.6889H38.7111H35.7333H32.7556H29.7778H26.8ZM53.6 423.529V426.51V429.49V432.471V435.451V438.431V441.412V444.392V447.373V450.353H56.5778H59.5556H62.5333H65.5111H68.4889H71.4667H74.4444H77.4222H80.4V447.373V444.392V441.412V438.431V435.451V432.471V429.49V426.51V423.529H77.4222H74.4444H71.4667H68.4889H65.5111H62.5333H59.5556H56.5778H53.6ZM80.4 450.353V453.333V456.314V459.294V462.275V465.255V468.235V471.216V474.196V477.176H83.3778H86.3556H89.3333H92.3111H95.2889H98.2667H101.244H104.222H107.2V474.196V471.216V468.235V465.255V462.275V459.294V456.314V453.333V450.353H104.222H101.244H98.2667H95.2889H92.3111H89.3333H86.3556H83.3778H80.4ZM107.2 477.176V480.157V483.137V486.118V489.098V492.078V495.059V498.039V501.02V504H110.178H113.156H116.133H119.111H122.089H125.067H128.044H131.022H134H136.978H139.956H142.933H145.911H148.889H151.867H154.844H157.822H160.8H163.778H166.756H169.733H172.711H175.689H178.667H181.644H184.622H187.6H190.578H193.556H196.533H199.511H202.489H205.467H208.444H211.422H214.4H217.378H220.356H223.333H226.311H229.289H232.267H235.244H238.222H241.2H244.178H247.156H250.133H253.111H256.089H259.067H262.044H265.022H268H270.978H273.956H276.933H279.911H282.889H285.867H288.844H291.822H294.8H297.778H300.756H303.733H306.711H309.689H312.667H315.644H318.622H321.6H324.578H327.556H330.533H333.511H336.489H339.467H342.444H345.422H348.4V501.02V498.039V495.059V492.078V489.098V486.118V483.137V480.157V477.176H345.422H342.444H339.467H336.489H333.511H330.533H327.556H324.578H321.6H318.622H315.644H312.667H309.689H306.711H303.733H300.756H297.778H294.8H291.822H288.844H285.867H282.889H279.911H276.933H273.956H270.978H268H265.022H262.044H259.067H256.089H253.111H250.133H247.156H244.178H241.2H238.222H235.244H232.267H229.289H226.311H223.333H220.356H217.378H214.4H211.422H208.444H205.467H202.489H199.511H196.533H193.556H190.578H187.6H184.622H181.644H178.667H175.689H172.711H169.733H166.756H163.778H160.8H157.822H154.844H151.867H148.889H145.911H142.933H139.956H136.978H134H131.022H128.044H125.067H122.089H119.111H116.133H113.156H110.178H107.2ZM348.4 477.176H351.378H354.356H357.333H360.311H363.289H366.267H369.244H372.222H375.2V474.196V471.216V468.235V465.255V462.275V459.294V456.314V453.333V450.353H372.222H369.244H366.267H363.289H360.311H357.333H354.356H351.378H348.4V453.333V456.314V459.294V462.275V465.255V468.235V471.216V474.196V477.176Z" fill="#6BA7CC"/>
<path d="M107.2 48V50.9804V53.9608V56.9412V59.9216V62.902V65.8824V68.8627V71.8431V74.8235H110.178H113.156H116.133H119.111H122.089H125.067H128.044H131.022H134H136.978H139.956H142.933H145.911H148.889H151.867H154.844H157.822H160.8H163.778H166.756H169.733H172.711H175.689H178.667H181.644H184.622H187.6H190.578H193.556H196.533H199.511H202.489H205.467H208.444H211.422H214.4H217.378H220.356H223.333H226.311H229.289H232.267H235.244H238.222H241.2V71.8431V68.8627V65.8824V62.902V59.9216V56.9412V53.9608V50.9804V48H238.222H235.244H232.267H229.289H226.311H223.333H220.356H217.378H214.4H211.422H208.444H205.467H202.489H199.511H196.533H193.556H190.578H187.6H184.622H181.644H178.667H175.689H172.711H169.733H166.756H163.778H160.8H157.822H154.844H151.867H148.889H145.911H142.933H139.956H136.978H134H131.022H128.044H125.067H122.089H119.111H116.133H113.156H110.178H107.2ZM241.2 74.8235V77.8039V80.7843V83.7647V86.7451V89.7255V92.7059V95.6863V98.6667V101.647V104.627V107.608V110.588V113.569V116.549V119.529V122.51V125.49V128.471V131.451V134.431V137.412V140.392V143.373V146.353V149.333V152.314V155.294H244.178H247.156H250.133H253.111H256.089H259.067H262.044H265.022H268V152.314V149.333V146.353V143.373V140.392V137.412V134.431V131.451V128.471V125.49V122.51V119.529V116.549V113.569V110.588V107.608V104.627V101.647V98.6667V95.6863V92.7059V89.7255V86.7451V83.7647V80.7843V77.8039V74.8235H265.022H262.044H259.067H256.089H253.111H250.133H247.156H244.178H241.2ZM241.2 155.294H238.222H235.244H232.267H229.289H226.311H223.333H220.356H217.378H214.4V158.275V161.255V164.235V167.216V170.196V173.176V176.157V179.137V182.118H217.378H220.356H223.333H226.311H229.289H232.267H235.244H238.222H241.2V179.137V176.157V173.176V170.196V167.216V164.235V161.255V158.275V155.294ZM187.6 238.745V241.725V244.706V247.686V250.667V253.647V256.627V259.608V262.588H190.578H193.556H196.533H199.511H202.489H205.467H208.444H211.422H214.4V259.608V256.627V253.647V250.667V247.686V244.706V241.725V238.745H211.422H208.444H205.467H202.489H199.511H196.533H193.556H190.578H187.6ZM214.4 262.588V265.569V268.549V271.529V274.51V277.49V280.471V283.451V286.431V289.412V292.392V295.373V298.353V301.333V304.314V307.294V310.275V313.255V316.235H217.378H220.356H223.333H226.311H229.289H232.267H235.244H238.222H241.2V313.255V310.275V307.294V304.314V301.333V298.353V295.373V292.392V289.412V286.431V283.451V280.471V277.49V274.51V271.529V268.549V265.569V262.588H238.222H235.244H232.267H229.289H226.311H223.333H220.356H217.378H214.4ZM241.2 316.235V319.216V322.196V325.176V328.157V331.137V334.118V337.098V340.078V343.059H244.178H247.156H250.133H253.111H256.089H259.067H262.044H265.022H268H270.978H273.956H276.933H279.911H282.889H285.867H288.844H291.822H294.8H297.778H300.756H303.733H306.711H309.689H312.667H315.644H318.622H321.6H324.578H327.556H330.533H333.511H336.489H339.467H342.444H345.422H348.4V340.078V337.098V334.118V331.137V328.157V325.176V322.196V319.216V316.235H345.422H342.444H339.467H336.489H333.511H330.533H327.556H324.578H321.6H318.622H315.644H312.667H309.689H306.711H303.733H300.756H297.778H294.8H291.822H288.844H285.867H282.889H279.911H276.933H273.956H270.978H268H265.022H262.044H259.067H256.089H253.111H250.133H247.156H244.178H241.2ZM348.4 343.059V346.039V349.02V352V354.98V357.961V360.941V363.922V366.902V369.882H351.378H354.356H357.333H360.311H363.289H366.267H369.244H372.222H375.2V366.902V363.922V360.941V357.961V354.98V352V349.02V346.039V343.059H372.222H369.244H366.267H363.289H360.311H357.333H354.356H351.378H348.4ZM375.2 369.882V372.863V375.843V378.824V381.804V384.784V387.765V390.745V393.725V396.706V399.686V402.667V405.647V408.627V411.608V414.588V417.569V420.549V423.529V426.51V429.49V432.471V435.451V438.431V441.412V444.392V447.373V450.353H378.178H381.156H384.133H387.111H390.089H393.067H396.044H399.022H402V447.373V444.392V441.412V438.431V435.451V432.471V429.49V426.51V423.529V420.549V417.569V414.588V411.608V408.627V405.647V402.667V399.686V396.706V393.725V390.745V387.765V384.784V381.804V378.824V375.843V372.863V369.882H399.022H396.044H393.067H390.089H387.111H384.133H381.156H378.178H375.2Z" fill="#E2FCFF"/>
<path d="M53.6 74.8237V77.8041V80.7845V83.7649V86.7453V89.7257V92.7061V95.6865V98.6669V101.647H50.6223H47.6445H44.6667H41.6889H38.7112H35.7334H32.7556H29.7778H26.8V104.628V107.608V110.588V113.569V116.549V119.53V122.51V125.49V128.471V131.451V134.432V137.412V140.392V143.373V146.353V149.334V152.314V155.294V158.275V161.255V164.235V167.216V170.196V173.177V176.157V179.137V182.118H29.7778H32.7556H35.7334H38.7112H41.6889H44.6667H47.6445H50.6223H53.6H56.5778H59.5556H62.5334H65.5112H68.4889H71.4667H74.4445H77.4223H80.4V179.137V176.157V173.177V170.196V167.216V164.235V161.255V158.275V155.294V152.314V149.334V146.353V143.373V140.392V137.412V134.432V131.451V128.471V125.49V122.51V119.53V116.549V113.569V110.588V107.608V104.628V101.647H83.3778H86.3556H89.3334H92.3112H95.2889H98.2667H101.244H104.222H107.2V98.6669V95.6865V92.7061V89.7257V86.7453V83.7649V80.7845V77.8041V74.8237H104.222H101.244H98.2667H95.2889H92.3112H89.3334H86.3556H83.3778H80.4H77.4223H74.4445H71.4667H68.4889H65.5112H62.5334H59.5556H56.5778H53.6ZM26.8 229.804V232.785V235.765V238.745V241.726V244.706V247.686V250.667V253.647V256.628V259.608V262.588V265.569V268.549V271.53V274.51V277.49V280.471V283.451V286.432V289.412V292.392V295.373V298.353V301.334V304.314V307.294V310.275V313.255V316.236V319.216V322.196V325.177V328.157V331.137V334.118V337.098V340.079V343.059V346.039V349.02V352V354.981V357.961V360.941V363.922V366.902V369.883H29.7778H32.7556H35.7334H38.7112H41.6889H44.6667H47.6445H50.6223H53.6V372.863V375.843V378.824V381.804V384.785V387.765V390.745V393.726V396.706V399.686V402.667V405.647V408.628V411.608V414.588V417.569V420.549V423.53H56.5778H59.5556H62.5334H65.5112H68.4889H71.4667H74.4445H77.4223H80.4V426.51V429.49V432.471V435.451V438.432V441.412V444.392V447.373V450.353H83.3778H86.3556H89.3334H92.3112H95.2889H98.2667H101.244H104.222H107.2V453.334V456.314V459.294V462.275V465.255V468.236V471.216V474.196V477.177H110.178H113.156H116.133H119.111H122.089H125.067H128.044H131.022H134H136.978H139.956H142.933H145.911H148.889H151.867H154.844H157.822H160.8H163.778H166.756H169.733H172.711H175.689H178.667H181.644H184.622H187.6H190.578H193.556H196.533H199.511H202.489H205.467H208.444H211.422H214.4H217.378H220.356H223.333H226.311H229.289H232.267H235.244H238.222H241.2H244.178H247.156H250.133H253.111H256.089H259.067H262.044H265.022H268H270.978H273.956H276.933H279.911H282.889H285.867H288.844H291.822H294.8H297.778H300.756H303.733H306.711H309.689H312.667H315.644H318.622H321.6H324.578H327.556H330.533H333.511H336.489H339.467H342.444H345.422H348.4V474.196V471.216V468.236V465.255V462.275V459.294V456.314V453.334V450.353H351.378H354.356H357.333H360.311H363.289H366.267H369.244H372.222H375.2V447.373V444.392V441.412V438.432V435.451V432.471V429.49V426.51V423.53H372.222H369.244H366.267H363.289H360.311H357.333H354.356H351.378H348.4H345.422H342.444H339.467H336.489H333.511H330.533H327.556H324.578H321.6H318.622H315.644H312.667H309.689H306.711H303.733H300.756H297.778H294.8H291.822H288.844H285.867H282.889H279.911H276.933H273.956H270.978H268H265.022H262.044H259.067H256.089H253.111H250.133H247.156H244.178H241.2H238.222H235.244H232.267H229.289H226.311H223.333H220.356H217.378H214.4V420.549V417.569V414.588V411.608V408.628V405.647V402.667V399.686V396.706H211.422H208.444H205.467H202.489H199.511H196.533H193.556H190.578H187.6V393.726V390.745V387.765V384.785V381.804V378.824V375.843V372.863V369.883H184.622H181.644H178.667H175.689H172.711H169.733H166.756H163.778H160.8V366.902V363.922V360.941V357.961V354.981V352V349.02V346.039V343.059H157.822H154.844H151.867H148.889H145.911H142.933H139.956H136.978H134H131.022H128.044H125.067H122.089H119.111H116.133H113.156H110.178H107.2V340.079V337.098V334.118V331.137V328.157V325.177V322.196V319.216V316.236V313.255V310.275V307.294V304.314V301.334V298.353V295.373V292.392V289.412H104.222H101.244H98.2667H95.2889H92.3112H89.3334H86.3556H83.3778H80.4V286.432V283.451V280.471V277.49V274.51V271.53V268.549V265.569V262.588V259.608V256.628V253.647V250.667V247.686V244.706V241.726V238.745H77.4223H74.4445H71.4667H68.4889H65.5112H62.5334H59.5556H56.5778H53.6H50.6223H47.6445H44.6667H41.6889H38.7112H35.7334H32.7556H29.7778V235.765V232.785V229.804H26.8Z" fill="#AEDBF0"/>
<path d="M107.2 74.8237V77.8041V80.7845V83.7649V86.7453V89.7257V92.7061V95.6865V98.6669V101.647H104.222H101.244H98.2667H95.2889H92.3111H89.3334H86.3556H83.3778H80.4V104.628V107.608V110.588V113.569V116.549V119.53V122.51V125.49V128.471V131.451V134.432V137.412V140.392V143.373V146.353V149.334V152.314V155.294V158.275V161.255V164.235V167.216V170.196V173.177V176.157V179.137V182.118H83.3778H86.3556H89.3334H92.3111H95.2889H98.2667H101.244H104.222H107.2H110.178H113.156H116.133H119.111H122.089H125.067H128.044H131.022H134H136.978H139.956H142.933H145.911H148.889H151.867H154.844H157.822H160.8H163.778H166.756H169.733H172.711H175.689H178.667H181.644H184.622H187.6H190.578H193.556H196.533H199.511H202.489H205.467H208.444H211.422H214.4V179.137V176.157V173.177V170.196V167.216V164.235V161.255V158.275V155.294H217.378H220.356H223.333H226.311H229.289H232.267H235.244H238.222H241.2V152.314V149.334V146.353V143.373V140.392V137.412V134.432V131.451V128.471V125.49V122.51V119.53V116.549V113.569V110.588V107.608V104.628V101.647V98.6669V95.6865V92.7061V89.7257V86.7453V83.7649V80.7845V77.8041V74.8237H238.222H235.244H232.267H229.289H226.311H223.333H220.356H217.378H214.4H211.422H208.444H205.467H202.489H199.511H196.533H193.556H190.578H187.6H184.622H181.644H178.667H175.689H172.711H169.733H166.756H163.778H160.8H157.822H154.844H151.867H148.889H145.911H142.933H139.956H136.978H134H131.022H128.044H125.067H122.089H119.111H116.133H113.156H110.178H107.2ZM134 194.039V197.02V200V202.981V205.961V208.941V211.922H131.022H128.044V214.902V217.883V220.863H125.067H122.089H119.111V223.843V226.824V229.804H116.133H113.156H110.178H107.2V232.785V235.765V238.745H104.222H101.244H98.2667H95.2889H92.3111H89.3334H86.3556H83.3778H80.4V241.726V244.706V247.686V250.667V253.647V256.628V259.608V262.588V265.569V268.549V271.53V274.51V277.49V280.471V283.451V286.432V289.412H83.3778H86.3556H89.3334H92.3111H95.2889H98.2667H101.244H104.222H107.2V292.392V295.373V298.353V301.334V304.314V307.294V310.275V313.255V316.235V319.216V322.196V325.177V328.157V331.137V334.118V337.098V340.079V343.059H110.178H113.156H116.133H119.111H122.089H125.067H128.044H131.022H134H136.978H139.956H142.933H145.911H148.889H151.867H154.844H157.822H160.8V346.039V349.02V352V354.981V357.961V360.941V363.922V366.902V369.883H163.778H166.756H169.733H172.711H175.689H178.667H181.644H184.622H187.6V372.863V375.843V378.824V381.804V384.784V387.765V390.745V393.726V396.706H190.578H193.556H196.533H199.511H202.489H205.467H208.444H211.422H214.4V399.686V402.667V405.647V408.628V411.608V414.588V417.569V420.549V423.53H217.378H220.356H223.333H226.311H229.289H232.267H235.244H238.222H241.2H244.178H247.156H250.133H253.111H256.089H259.067H262.044H265.022H268H270.978H273.956H276.933H279.911H282.889H285.867H288.844H291.822H294.8H297.778H300.756H303.733H306.711H309.689H312.667H315.644H318.622H321.6H324.578H327.556H330.533H333.511H336.489H339.467H342.444H345.422H348.4H351.378H354.356H357.333H360.311H363.289H366.267H369.244H372.222H375.2V420.549V417.569V414.588V411.608V408.628V405.647V402.667V399.686V396.706V393.726V390.745V387.765V384.784V381.804V378.824V375.843V372.863V369.883H372.222H369.244H366.267H363.289H360.311H357.333H354.356H351.378H348.4H345.422H342.444H339.467H336.489H333.511H330.533H327.556H324.578H321.6H318.622H315.644H312.667H309.689H306.711H303.733H300.756H297.778H294.8V366.902V363.922V360.941V357.961V354.981V352V349.02V346.039V343.059H291.822H288.844H285.867H282.889H279.911H276.933H273.956H270.978H268H265.022H262.044H259.067H256.089H253.111H250.133H247.156H244.178H241.2V340.079V337.098V334.118V331.137V328.157V325.177V322.196V319.216V316.235H238.222H235.244H232.267H229.289H226.311H223.333H220.356H217.378H214.4V313.255V310.275V307.294V304.314V301.334V298.353V295.373V292.392V289.412V286.432V283.451V280.471V277.49V274.51V271.53V268.549V265.569V262.588H211.422H208.444H205.467H202.489H199.511H196.533H193.556H190.578H187.6V259.608V256.628V253.647V250.667V247.686V244.706V241.726V238.745H184.622H181.644H178.667H175.689H172.711V235.765V232.785V229.804H169.733H166.756H163.778V226.824V223.843V220.863V217.883H160.8H157.822H154.844H151.867V214.902V211.922V208.941V205.961V202.981V200V197.02V194.039H148.889H145.911H142.933H139.956H136.978H134Z" fill="#CBF1FA"/>
<path d="M0 182.118V185.098V188.078V191.059V194.039V197.02V200V202.98V205.961H2.97778H5.95556H8.93333V208.941V211.922V214.902V217.882H11.9111H14.8889H17.8667V220.863V223.843V226.824V229.804H20.8444H23.8222H26.8H29.7778V232.784V235.765V238.745H32.7556H35.7333H38.7111H41.6889H44.6667H47.6444H50.6222H53.6H56.5778H59.5556H62.5333H65.5111H68.4889H71.4667H74.4444H77.4222H80.4H83.3778H86.3556H89.3333H92.3111H95.2889H98.2667H101.244H104.222H107.2V235.765V232.784V229.804H110.178H113.156H116.133H119.111V226.824V223.843V220.863H122.089H125.067H128.044V217.882V214.902V211.922H131.022H134V208.941V205.961V202.98V200V197.02V194.039H136.978H139.956H142.933H145.911H148.889H151.867V197.02V200V202.98V205.961V208.941V211.922V214.902V217.882H154.844H157.822H160.8H163.778V220.863V223.843V226.824V229.804H166.756H169.733H172.711V232.784V235.765V238.745H175.689H178.667H181.644H184.622H187.6H190.578H193.556H196.533H199.511H202.489H205.467H208.444H211.422H214.4H217.378H220.356H223.333H226.311H229.289H232.267H235.244H238.222H241.2H244.178H247.156H250.133V235.765V232.784V229.804H253.111H256.089H259.067H262.044V226.824V223.843V220.863V217.882H265.022H268H270.978H273.956V214.902V211.922V208.941V205.961H276.933H279.911H282.889H285.867V202.98V200V197.02V194.039V191.059V188.078V185.098V182.118H282.889H279.911H276.933H273.956H270.978H268H265.022H262.044H259.067H256.089H253.111H250.133H247.156H244.178H241.2H238.222H235.244H232.267H229.289H226.311H223.333H220.356H217.378H214.4H211.422H208.444H205.467H202.489H199.511H196.533H193.556H190.578H187.6H184.622H181.644H178.667H175.689H172.711H169.733H166.756H163.778H160.8H157.822H154.844H151.867H148.889H145.911H142.933H139.956H136.978H134H131.022H128.044H125.067H122.089H119.111H116.133H113.156H110.178H107.2H104.222H101.244H98.2667H95.2889H92.3111H89.3333H86.3556H83.3778H80.4H77.4222H74.4444H71.4667H68.4889H65.5111H62.5333H59.5556H56.5778H53.6H50.6222H47.6444H44.6667H41.6889H38.7111H35.7333H32.7556H29.7778H26.8H23.8222H20.8444H17.8667H14.8889H11.9111H8.93333H5.95556H2.97778H0ZM17.8667 194.039H20.8444H23.8222H26.8H29.7778V197.02V200V202.98V205.961H32.7556H35.7333H38.7111H41.6889V202.98V200V197.02V194.039H44.6667H47.6444H50.6222H53.6V197.02V200V202.98V205.961H56.5778H59.5556H62.5333H65.5111V208.941V211.922V214.902V217.882H68.4889H71.4667H74.4444H77.4222V220.863V223.843V226.824V229.804H74.4444H71.4667H68.4889H65.5111V226.824V223.843V220.863V217.882H62.5333H59.5556H56.5778H53.6V220.863V223.843V226.824V229.804H50.6222H47.6444H44.6667H41.6889V226.824V223.843V220.863V217.882H38.7111H35.7333H32.7556H29.7778V214.902V211.922V208.941V205.961H26.8H23.8222H20.8444H17.8667V202.98V200V197.02V194.039ZM41.6889 217.882H44.6667H47.6444H50.6222H53.6V214.902V211.922V208.941V205.961H50.6222H47.6444H44.6667H41.6889V208.941V211.922V214.902V217.882ZM172.711 194.039H175.689H178.667H181.644H184.622V197.02V200V202.98V205.961H187.6H190.578H193.556H196.533V202.98V200V197.02V194.039H199.511H202.489H205.467H208.444V197.02V200V202.98V205.961H211.422H214.4H217.378H220.356V208.941V211.922V214.902V217.882H223.333H226.311H229.289H232.267V220.863V223.843V226.824V229.804H229.289H226.311H223.333H220.356V226.824V223.843V220.863V217.882H217.378H214.4H211.422H208.444V220.863V223.843V226.824V229.804H205.467H202.489H199.511H196.533V226.824V223.843V220.863V217.882H193.556H190.578H187.6H184.622V214.902V211.922V208.941V205.961H181.644H178.667H175.689H172.711V202.98V200V197.02V194.039ZM196.533 217.882H199.511H202.489H205.467H208.444V214.902V211.922V208.941V205.961H205.467H202.489H199.511H196.533V208.941V211.922V214.902V217.882Z" fill="black"/>
<path d="M17.8667 194.039V197.019V200V202.98V205.961H20.8445H23.8223H26.8H29.7778V202.98V200V197.019V194.039H26.8H23.8223H20.8445H17.8667ZM29.7778 205.961V208.941V211.921V214.902V217.882H32.7556H35.7334H38.7111H41.6889V214.902V211.921V208.941V205.961H38.7111H35.7334H32.7556H29.7778ZM41.6889 205.961H44.6667H47.6445H50.6223H53.6V202.98V200V197.019V194.039H50.6223H47.6445H44.6667H41.6889V197.019V200V202.98V205.961ZM53.6 205.961V208.941V211.921V214.902V217.882H56.5778H59.5556H62.5334H65.5111V214.902V211.921V208.941V205.961H62.5334H59.5556H56.5778H53.6ZM65.5111 217.882V220.863V223.843V226.823V229.804H68.4889H71.4667H74.4445H77.4223V226.823V223.843V220.863V217.882H74.4445H71.4667H68.4889H65.5111ZM53.6 217.882H50.6223H47.6445H44.6667H41.6889V220.863V223.843V226.823V229.804H44.6667H47.6445H50.6223H53.6V226.823V223.843V220.863V217.882ZM172.711 194.039V197.019V200V202.98V205.961H175.689H178.667H181.644H184.622V202.98V200V197.019V194.039H181.644H178.667H175.689H172.711ZM184.622 205.961V208.941V211.921V214.902V217.882H187.6H190.578H193.556H196.533V214.902V211.921V208.941V205.961H193.556H190.578H187.6H184.622ZM196.533 205.961H199.511H202.489H205.467H208.444V202.98V200V197.019V194.039H205.467H202.489H199.511H196.533V197.019V200V202.98V205.961ZM208.444 205.961V208.941V211.921V214.902V217.882H211.422H214.4H217.378H220.356V214.902V211.921V208.941V205.961H217.378H214.4H211.422H208.444ZM220.356 217.882V220.863V223.843V226.823V229.804H223.333H226.311H229.289H232.267V226.823V223.843V220.863V217.882H229.289H226.311H223.333H220.356ZM208.444 217.882H205.467H202.489H199.511H196.533V220.863V223.843V226.823V229.804H199.511H202.489H205.467H208.444V226.823V223.843V220.863V217.882Z" fill="white"/>
<path d="M294.8 343.059V346.039V349.019V352V354.98V357.961V360.941V363.921V366.902V369.882H297.778H300.756H303.733H306.711H309.689H312.667H315.644H318.622H321.6H324.578H327.556H330.533H333.511H336.489H339.467H342.444H345.422H348.4V366.902V363.921V360.941V357.961V354.98V352V349.019V346.039V343.059H345.422H342.444H339.467H336.489H333.511H330.533H327.556H324.578H321.6H318.622H315.644H312.667H309.689H306.711H303.733H300.756H297.778H294.8Z" fill="#F7F8F3"/>
</g>
<g filter="url(#filter0_b_350_4365)">
<rect x="141" width="295" height="551" rx="64" fill="#D9D9D9" fill-opacity="0.2"/>
<rect x="143" y="2" width="291" height="547" rx="62" stroke="url(#paint0_linear_350_4365)" stroke-opacity="0.6" stroke-width="4"/>
</g>
<defs>
<filter id="filter0_b_350_4365" x="121" y="-20" width="335" height="591" filterUnits="userSpaceOnUse" color-interpolation-filters="sRGB">
<feFlood flood-opacity="0" result="BackgroundImageFix"/>
<feGaussianBlur in="BackgroundImageFix" stdDeviation="10"/>
<feComposite in2="SourceAlpha" operator="in" result="effect1_backgroundBlur_350_4365"/>
<feBlend mode="normal" in="SourceGraphic" in2="effect1_backgroundBlur_350_4365" result="shape"/>
</filter>
<linearGradient id="paint0_linear_350_4365" x1="141" y1="0" x2="585.048" y2="255.98" gradientUnits="userSpaceOnUse">
<stop stop-color="white"/>
<stop offset="1" stop-color="white" stop-opacity="0"/>
</linearGradient>
<clipPath id="clip0_350_4365">
<rect width="402" height="456" fill="white" transform="translate(0 48)"/>
</clipPath>
</defs>
</svg>
