<svg width="1000" height="440" viewBox="0 0 1000 440" fill="none" xmlns="http://www.w3.org/2000/svg">
<g style="mix-blend-mode:overlay" filter="url(#filter0_f_1_31)">
<path d="M739.81 220.8C737.843 220.8 736.241 219.185 736.241 217.2C736.241 216.538 735.71 216 735.052 216C734.394 216 733.862 216.538 733.862 217.2C733.862 219.185 732.261 220.8 730.293 220.8C729.635 220.8 729.103 221.338 729.103 222C729.103 222.662 729.635 223.2 730.293 223.2C732.261 223.2 733.862 224.815 733.862 226.8C733.862 227.462 734.394 228 735.052 228C735.71 228 736.241 227.462 736.241 226.8C736.241 224.815 737.843 223.2 739.81 223.2C740.468 223.2 741 222.662 741 222C741 221.338 740.468 220.8 739.81 220.8Z" fill="#BFDBFE"/>
</g>
<g style="mix-blend-mode:overlay" filter="url(#filter1_f_1_31)">
<path d="M781.81 251.8C779.843 251.8 778.241 250.185 778.241 248.2C778.241 247.538 777.71 247 777.052 247C776.394 247 775.862 247.538 775.862 248.2C775.862 250.185 774.261 251.8 772.293 251.8C771.635 251.8 771.103 252.338 771.103 253C771.103 253.662 771.635 254.2 772.293 254.2C774.261 254.2 775.862 255.815 775.862 257.8C775.862 258.462 776.394 259 777.052 259C777.71 259 778.241 258.462 778.241 257.8C778.241 255.815 779.843 254.2 781.81 254.2C782.468 254.2 783 253.662 783 253C783 252.338 782.468 251.8 781.81 251.8Z" fill="#BFDBFE" fill-opacity="0.48"/>
</g>
<g style="mix-blend-mode:overlay" filter="url(#filter2_f_1_31)">
<path d="M718.81 186.8C716.843 186.8 715.241 185.185 715.241 183.2C715.241 182.538 714.71 182 714.052 182C713.394 182 712.862 182.538 712.862 183.2C712.862 185.185 711.261 186.8 709.293 186.8C708.635 186.8 708.103 187.338 708.103 188C708.103 188.662 708.635 189.2 709.293 189.2C711.261 189.2 712.862 190.815 712.862 192.8C712.862 193.462 713.394 194 714.052 194C714.71 194 715.241 193.462 715.241 192.8C715.241 190.815 716.843 189.2 718.81 189.2C719.468 189.2 720 188.662 720 188C720 187.338 719.468 186.8 718.81 186.8Z" fill="#BFDBFE" fill-opacity="0.24"/>
</g>
<g style="mix-blend-mode:overlay" opacity="0.64" filter="url(#filter3_f_1_31)">
<path d="M793.81 186.8C791.843 186.8 790.241 185.185 790.241 183.2C790.241 182.538 789.71 182 789.052 182C788.394 182 787.862 182.538 787.862 183.2C787.862 185.185 786.261 186.8 784.293 186.8C783.635 186.8 783.103 187.338 783.103 188C783.103 188.662 783.635 189.2 784.293 189.2C786.261 189.2 787.862 190.815 787.862 192.8C787.862 193.462 788.394 194 789.052 194C789.71 194 790.241 193.462 790.241 192.8C790.241 190.815 791.843 189.2 793.81 189.2C794.468 189.2 795 188.662 795 188C795 187.338 794.468 186.8 793.81 186.8Z" fill="#BFDBFE"/>
</g>
<g filter="url(#filter4_f_1_31)">
<path d="M740 222H804" stroke="url(#paint0_linear_1_31)"/>
</g>
<g style="mix-blend-mode:overlay" filter="url(#filter5_f_1_31)">
<path d="M231.81 220.8C229.843 220.8 228.241 219.185 228.241 217.2C228.241 216.538 227.71 216 227.052 216C226.394 216 225.862 216.538 225.862 217.2C225.862 219.185 224.261 220.8 222.293 220.8C221.635 220.8 221.103 221.338 221.103 222C221.103 222.662 221.635 223.2 222.293 223.2C224.261 223.2 225.862 224.815 225.862 226.8C225.862 227.462 226.394 228 227.052 228C227.71 228 228.241 227.462 228.241 226.8C228.241 224.815 229.843 223.2 231.81 223.2C232.468 223.2 233 222.662 233 222C233 221.338 232.468 220.8 231.81 220.8Z" fill="#BFDBFE"/>
</g>
<g style="mix-blend-mode:overlay" filter="url(#filter6_f_1_31)">
<path d="M273.81 251.8C271.843 251.8 270.241 250.185 270.241 248.2C270.241 247.538 269.71 247 269.052 247C268.394 247 267.862 247.538 267.862 248.2C267.862 250.185 266.261 251.8 264.293 251.8C263.635 251.8 263.103 252.338 263.103 253C263.103 253.662 263.635 254.2 264.293 254.2C266.261 254.2 267.862 255.815 267.862 257.8C267.862 258.462 268.394 259 269.052 259C269.71 259 270.241 258.462 270.241 257.8C270.241 255.815 271.843 254.2 273.81 254.2C274.468 254.2 275 253.662 275 253C275 252.338 274.468 251.8 273.81 251.8Z" fill="#BFDBFE" fill-opacity="0.48"/>
</g>
<g style="mix-blend-mode:overlay" filter="url(#filter7_f_1_31)">
<path d="M210.81 186.8C208.843 186.8 207.241 185.185 207.241 183.2C207.241 182.538 206.71 182 206.052 182C205.394 182 204.862 182.538 204.862 183.2C204.862 185.185 203.261 186.8 201.293 186.8C200.635 186.8 200.103 187.338 200.103 188C200.103 188.662 200.635 189.2 201.293 189.2C203.261 189.2 204.862 190.815 204.862 192.8C204.862 193.462 205.394 194 206.052 194C206.71 194 207.241 193.462 207.241 192.8C207.241 190.815 208.843 189.2 210.81 189.2C211.468 189.2 212 188.662 212 188C212 187.338 211.468 186.8 210.81 186.8Z" fill="#BFDBFE" fill-opacity="0.24"/>
</g>
<g style="mix-blend-mode:overlay" opacity="0.64" filter="url(#filter8_f_1_31)">
<path d="M285.81 186.8C283.843 186.8 282.241 185.185 282.241 183.2C282.241 182.538 281.71 182 281.052 182C280.394 182 279.862 182.538 279.862 183.2C279.862 185.185 278.261 186.8 276.293 186.8C275.635 186.8 275.103 187.338 275.103 188C275.103 188.662 275.635 189.2 276.293 189.2C278.261 189.2 279.862 190.815 279.862 192.8C279.862 193.462 280.394 194 281.052 194C281.71 194 282.241 193.462 282.241 192.8C282.241 190.815 283.843 189.2 285.81 189.2C286.468 189.2 287 188.662 287 188C287 187.338 286.468 186.8 285.81 186.8Z" fill="#BFDBFE"/>
</g>
<g filter="url(#filter9_f_1_31)">
<path d="M219 222H283" stroke="url(#paint1_linear_1_31)"/>
</g>
<g filter="url(#filter10_f_1_31)">
<path d="M620 220C620 153.726 566.274 100 500 100C433.726 100 380 153.726 380 220C380 286.274 433.726 340 500 340C566.274 340 620 286.274 620 220Z" fill="url(#paint2_linear_1_31)"/>
</g>
<path d="M635.5 220C635.5 145.165 574.835 84.5 500 84.5C425.165 84.5 364.5 145.165 364.5 220C364.5 294.835 425.165 355.5 500 355.5C574.835 355.5 635.5 294.835 635.5 220Z" stroke="url(#paint3_linear_1_31)"/>
<path d="M667.5 220C667.5 127.492 592.508 52.5 500 52.5C407.492 52.5 332.5 127.492 332.5 220C332.5 312.508 407.492 387.5 500 387.5C592.508 387.5 667.5 312.508 667.5 220Z" stroke="url(#paint4_linear_1_31)"/>
<path d="M651.5 220C651.5 136.329 583.671 68.5 500 68.5C416.329 68.5 348.5 136.329 348.5 220C348.5 303.671 416.329 371.5 500 371.5C583.671 371.5 651.5 303.671 651.5 220Z" stroke="url(#paint5_linear_1_31)"/>
<path d="M683.5 220C683.5 118.656 601.344 36.5 500 36.5C398.656 36.5 316.5 118.656 316.5 220C316.5 321.344 398.656 403.5 500 403.5C601.344 403.5 683.5 321.344 683.5 220Z" stroke="url(#paint6_linear_1_31)"/>
<path d="M619 220C619 154.278 565.722 101 500 101C434.278 101 381 154.278 381 220C381 285.722 434.278 339 500 339C565.722 339 619 285.722 619 220Z" fill="#1F2937" stroke="url(#paint7_linear_1_31)" stroke-width="2"/>
<path d="M568 220C568 182.445 537.555 152 500 152C462.445 152 432 182.445 432 220C432 257.555 462.445 288 500 288C537.555 288 568 257.555 568 220Z" fill="url(#paint8_linear_1_31)"/>
<g filter="url(#filter11_d_1_31)">
<path d="M504 214.867L519.503 192H526.529L507.454 219.65L527 248H520.014L504 224.472V214.867Z" fill="white"/>
<path d="M498 214.867L482.497 192H475.471L494.546 219.65L484.773 233.825L475 248H481.986L498 224.472V214.867Z" fill="white"/>
</g>
<g filter="url(#filter12_f_1_31)">
<path d="M545.103 363.388C543.232 363.996 541.21 362.955 540.596 361.067C540.392 360.437 539.72 360.09 539.094 360.294C538.469 360.497 538.129 361.173 538.334 361.803C538.947 363.69 537.923 365.721 536.052 366.329C535.426 366.533 535.086 367.208 535.291 367.838C535.496 368.468 536.168 368.815 536.793 368.612C538.665 368.004 540.687 369.045 541.3 370.933C541.505 371.563 542.177 371.91 542.802 371.706C543.428 371.503 543.768 370.827 543.563 370.198C542.95 368.31 543.973 366.279 545.845 365.671C546.471 365.468 546.81 364.792 546.605 364.162C546.401 363.532 545.729 363.185 545.103 363.388Z" fill="#BFDBFE"/>
</g>
<g filter="url(#filter13_f_1_31)">
<path d="M444.699 95.8354C442.931 96.698 440.783 95.9482 439.913 94.1643C439.623 93.5689 438.909 93.3188 438.318 93.6072C437.727 93.8956 437.484 94.6119 437.775 95.2073C438.645 96.9912 437.914 99.1449 436.145 100.007C435.554 100.296 435.312 101.012 435.602 101.608C435.892 102.203 436.606 102.453 437.197 102.165C438.966 101.302 441.113 102.052 441.983 103.836C442.274 104.431 442.987 104.681 443.579 104.393C444.17 104.104 444.412 103.388 444.122 102.793C443.252 101.009 443.983 98.8551 445.751 97.9925C446.343 97.7041 446.585 96.9878 446.295 96.3924C446.004 95.7971 445.291 95.547 444.699 95.8354Z" fill="#BFDBFE"/>
</g>
<g filter="url(#filter14_f_1_31)">
<path d="M950 222C950 186.654 921.346 158 886 158C850.654 158 822 186.654 822 222C822 257.346 850.654 286 886 286C921.346 286 950 257.346 950 222Z" fill="url(#paint9_linear_1_31)" fill-opacity="0.48"/>
</g>
<path d="M949 222C949 187.206 920.794 159 886 159C851.206 159 823 187.206 823 222C823 256.794 851.206 285 886 285C920.794 285 949 256.794 949 222Z" fill="#1F2937" stroke="url(#paint10_linear_1_31)" stroke-width="2"/>
<path d="M926 222C926 199.909 908.091 182 886 182C863.909 182 846 199.909 846 222C846 244.091 863.909 262 886 262C908.091 262 926 244.091 926 222Z" fill="url(#paint11_linear_1_31)"/>
<path fill-rule="evenodd" clip-rule="evenodd" d="M890.359 205.158C890.861 205.438 891.107 206.024 890.956 206.579L887.637 218.75H899.75C900.248 218.75 900.698 219.045 900.896 219.502C901.095 219.958 901.003 220.489 900.664 220.853L883.164 239.603C882.772 240.023 882.143 240.122 881.641 239.842C881.139 239.562 880.893 238.976 881.044 238.421L884.363 226.25H872.25C871.752 226.25 871.302 225.955 871.104 225.498C870.905 225.042 870.997 224.511 871.336 224.147L888.836 205.397C889.228 204.977 889.857 204.878 890.359 205.158Z" fill="#BFDBFE"/>
<g filter="url(#filter15_f_1_31)">
<path d="M178 222C178 186.654 149.346 158 114 158C78.6538 158 50 186.654 50 222C50 257.346 78.6538 286 114 286C149.346 286 178 257.346 178 222Z" fill="url(#paint12_linear_1_31)" fill-opacity="0.48"/>
</g>
<path d="M177 222C177 187.206 148.794 159 114 159C79.2061 159 51 187.206 51 222C51 256.794 79.2061 285 114 285C148.794 285 177 256.794 177 222Z" fill="#1F2937" stroke="url(#paint13_linear_1_31)" stroke-width="2"/>
<path d="M154 222C154 199.909 136.091 182 114 182C91.9086 182 74 199.909 74 222C74 244.091 91.9086 262 114 262C136.091 262 154 244.091 154 222Z" fill="url(#paint14_linear_1_31)"/>
<g filter="url(#filter16_d_1_31)">
<g clip-path="url(#clip0_1_31)">
<path d="M115.79 204.019C111.051 204.087 106.529 206.011 103.201 209.375C99.8725 212.739 98.0044 217.274 98 222C98.0044 226.726 99.8725 231.261 103.201 234.625C106.529 237.989 111.051 239.913 115.79 239.981V225.598C115.787 225.599 115.783 225.599 115.78 225.6C115.306 225.6 114.836 225.507 114.398 225.326C113.96 225.145 113.562 224.88 113.227 224.546C112.892 224.211 112.626 223.814 112.444 223.378C112.263 222.941 112.17 222.473 112.17 222C112.17 221.527 112.263 221.059 112.444 220.622C112.626 220.186 112.892 219.789 113.227 219.454C113.562 219.12 113.96 218.855 114.398 218.674C114.836 218.493 115.306 218.4 115.78 218.4C115.783 218.401 115.787 218.401 115.79 218.402V204.019Z" fill="#BFDBFE"/>
<path d="M108.559 211.2C108.559 215.176 111.792 218.4 115.78 218.4C119.767 218.4 123 215.176 123 211.2C123 207.224 119.767 204 115.78 204C111.792 204 108.559 207.224 108.559 211.2Z" fill="#BFDBFE"/>
<path d="M108.559 232.8C108.559 236.776 111.792 240 115.78 240C119.767 240 123 236.776 123 232.8C123 228.824 119.767 225.6 115.78 225.6C111.792 225.6 108.559 228.824 108.559 232.8Z" fill="#BFDBFE"/>
</g>
</g>
<defs>
<filter id="filter0_f_1_31" x="721.103" y="208" width="27.8965" height="28" filterUnits="userSpaceOnUse" color-interpolation-filters="sRGB">
<feFlood flood-opacity="0" result="BackgroundImageFix"/>
<feBlend mode="normal" in="SourceGraphic" in2="BackgroundImageFix" result="shape"/>
<feGaussianBlur stdDeviation="4" result="effect1_foregroundBlur_1_31"/>
</filter>
<filter id="filter1_f_1_31" x="763.103" y="239" width="27.8965" height="28" filterUnits="userSpaceOnUse" color-interpolation-filters="sRGB">
<feFlood flood-opacity="0" result="BackgroundImageFix"/>
<feBlend mode="normal" in="SourceGraphic" in2="BackgroundImageFix" result="shape"/>
<feGaussianBlur stdDeviation="4" result="effect1_foregroundBlur_1_31"/>
</filter>
<filter id="filter2_f_1_31" x="700.103" y="174" width="27.8965" height="28" filterUnits="userSpaceOnUse" color-interpolation-filters="sRGB">
<feFlood flood-opacity="0" result="BackgroundImageFix"/>
<feBlend mode="normal" in="SourceGraphic" in2="BackgroundImageFix" result="shape"/>
<feGaussianBlur stdDeviation="4" result="effect1_foregroundBlur_1_31"/>
</filter>
<filter id="filter3_f_1_31" x="775.103" y="174" width="27.8965" height="28" filterUnits="userSpaceOnUse" color-interpolation-filters="sRGB">
<feFlood flood-opacity="0" result="BackgroundImageFix"/>
<feBlend mode="normal" in="SourceGraphic" in2="BackgroundImageFix" result="shape"/>
<feGaussianBlur stdDeviation="4" result="effect1_foregroundBlur_1_31"/>
</filter>
<filter id="filter4_f_1_31" x="640" y="121.5" width="264" height="201" filterUnits="userSpaceOnUse" color-interpolation-filters="sRGB">
<feFlood flood-opacity="0" result="BackgroundImageFix"/>
<feBlend mode="normal" in="SourceGraphic" in2="BackgroundImageFix" result="shape"/>
<feGaussianBlur stdDeviation="50" result="effect1_foregroundBlur_1_31"/>
</filter>
<filter id="filter5_f_1_31" x="213.103" y="208" width="27.8965" height="28" filterUnits="userSpaceOnUse" color-interpolation-filters="sRGB">
<feFlood flood-opacity="0" result="BackgroundImageFix"/>
<feBlend mode="normal" in="SourceGraphic" in2="BackgroundImageFix" result="shape"/>
<feGaussianBlur stdDeviation="4" result="effect1_foregroundBlur_1_31"/>
</filter>
<filter id="filter6_f_1_31" x="255.103" y="239" width="27.8965" height="28" filterUnits="userSpaceOnUse" color-interpolation-filters="sRGB">
<feFlood flood-opacity="0" result="BackgroundImageFix"/>
<feBlend mode="normal" in="SourceGraphic" in2="BackgroundImageFix" result="shape"/>
<feGaussianBlur stdDeviation="4" result="effect1_foregroundBlur_1_31"/>
</filter>
<filter id="filter7_f_1_31" x="192.103" y="174" width="27.8965" height="28" filterUnits="userSpaceOnUse" color-interpolation-filters="sRGB">
<feFlood flood-opacity="0" result="BackgroundImageFix"/>
<feBlend mode="normal" in="SourceGraphic" in2="BackgroundImageFix" result="shape"/>
<feGaussianBlur stdDeviation="4" result="effect1_foregroundBlur_1_31"/>
</filter>
<filter id="filter8_f_1_31" x="267.103" y="174" width="27.8965" height="28" filterUnits="userSpaceOnUse" color-interpolation-filters="sRGB">
<feFlood flood-opacity="0" result="BackgroundImageFix"/>
<feBlend mode="normal" in="SourceGraphic" in2="BackgroundImageFix" result="shape"/>
<feGaussianBlur stdDeviation="4" result="effect1_foregroundBlur_1_31"/>
</filter>
<filter id="filter9_f_1_31" x="119" y="121.5" width="264" height="201" filterUnits="userSpaceOnUse" color-interpolation-filters="sRGB">
<feFlood flood-opacity="0" result="BackgroundImageFix"/>
<feBlend mode="normal" in="SourceGraphic" in2="BackgroundImageFix" result="shape"/>
<feGaussianBlur stdDeviation="50" result="effect1_foregroundBlur_1_31"/>
</filter>
<filter id="filter10_f_1_31" x="280" y="0" width="440" height="440" filterUnits="userSpaceOnUse" color-interpolation-filters="sRGB">
<feFlood flood-opacity="0" result="BackgroundImageFix"/>
<feBlend mode="normal" in="SourceGraphic" in2="BackgroundImageFix" result="shape"/>
<feGaussianBlur stdDeviation="50" result="effect1_foregroundBlur_1_31"/>
</filter>
<filter id="filter11_d_1_31" x="467" y="184" width="68" height="72" filterUnits="userSpaceOnUse" color-interpolation-filters="sRGB">
<feFlood flood-opacity="0" result="BackgroundImageFix"/>
<feColorMatrix in="SourceAlpha" type="matrix" values="0 0 0 0 0 0 0 0 0 0 0 0 0 0 0 0 0 0 127 0" result="hardAlpha"/>
<feOffset/>
<feGaussianBlur stdDeviation="4"/>
<feColorMatrix type="matrix" values="0 0 0 0 0.231373 0 0 0 0 0.509804 0 0 0 0 0.964706 0 0 0 0.48 0"/>
<feBlend mode="normal" in2="BackgroundImageFix" result="effect1_dropShadow_1_31"/>
<feBlend mode="normal" in="SourceGraphic" in2="effect1_dropShadow_1_31" result="shape"/>
</filter>
<filter id="filter12_f_1_31" x="531.232" y="356.236" width="19.4334" height="19.5289" filterUnits="userSpaceOnUse" color-interpolation-filters="sRGB">
<feFlood flood-opacity="0" result="BackgroundImageFix"/>
<feBlend mode="normal" in="SourceGraphic" in2="BackgroundImageFix" result="shape"/>
<feGaussianBlur stdDeviation="2" result="effect1_foregroundBlur_1_31"/>
</filter>
<filter id="filter13_f_1_31" x="431.479" y="89.4874" width="18.938" height="19.0253" filterUnits="userSpaceOnUse" color-interpolation-filters="sRGB">
<feFlood flood-opacity="0" result="BackgroundImageFix"/>
<feBlend mode="normal" in="SourceGraphic" in2="BackgroundImageFix" result="shape"/>
<feGaussianBlur stdDeviation="2" result="effect1_foregroundBlur_1_31"/>
</filter>
<filter id="filter14_f_1_31" x="772" y="108" width="228" height="228" filterUnits="userSpaceOnUse" color-interpolation-filters="sRGB">
<feFlood flood-opacity="0" result="BackgroundImageFix"/>
<feBlend mode="normal" in="SourceGraphic" in2="BackgroundImageFix" result="shape"/>
<feGaussianBlur stdDeviation="25" result="effect1_foregroundBlur_1_31"/>
</filter>
<filter id="filter15_f_1_31" x="0" y="108" width="228" height="228" filterUnits="userSpaceOnUse" color-interpolation-filters="sRGB">
<feFlood flood-opacity="0" result="BackgroundImageFix"/>
<feBlend mode="normal" in="SourceGraphic" in2="BackgroundImageFix" result="shape"/>
<feGaussianBlur stdDeviation="25" result="effect1_foregroundBlur_1_31"/>
</filter>
<filter id="filter16_d_1_31" x="90" y="196" width="41" height="52" filterUnits="userSpaceOnUse" color-interpolation-filters="sRGB">
<feFlood flood-opacity="0" result="BackgroundImageFix"/>
<feColorMatrix in="SourceAlpha" type="matrix" values="0 0 0 0 0 0 0 0 0 0 0 0 0 0 0 0 0 0 127 0" result="hardAlpha"/>
<feOffset/>
<feGaussianBlur stdDeviation="4"/>
<feColorMatrix type="matrix" values="0 0 0 0 0.231373 0 0 0 0 0.509804 0 0 0 0 0.964706 0 0 0 0.48 0"/>
<feBlend mode="normal" in2="BackgroundImageFix" result="effect1_dropShadow_1_31"/>
<feBlend mode="normal" in="SourceGraphic" in2="effect1_dropShadow_1_31" result="shape"/>
</filter>
<linearGradient id="paint0_linear_1_31" x1="-nan" y1="-nan" x2="-nan" y2="-nan" gradientUnits="userSpaceOnUse">
<stop stop-color="#3B82F6" stop-opacity="0.64"/>
<stop offset="1" stop-color="#F9FAFB" stop-opacity="0"/>
</linearGradient>
<linearGradient id="paint1_linear_1_31" x1="-nan" y1="-nan" x2="-nan" y2="-nan" gradientUnits="userSpaceOnUse">
<stop stop-color="#3B82F6" stop-opacity="0.64"/>
<stop offset="1" stop-color="#F9FAFB" stop-opacity="0"/>
</linearGradient>
<linearGradient id="paint2_linear_1_31" x1="1064.94" y1="24100" x2="23360.7" y2="868.182" gradientUnits="userSpaceOnUse">
<stop stop-color="#EC4899"/>
<stop offset="1" stop-color="#3B82F6"/>
</linearGradient>
<linearGradient id="paint3_linear_1_31" x1="13914.5" y1="84.5" x2="13914.5" y2="27184.5" gradientUnits="userSpaceOnUse">
<stop stop-color="#4B5563"/>
<stop offset="1" stop-color="#4B5563" stop-opacity="0"/>
</linearGradient>
<linearGradient id="paint4_linear_1_31" x1="17082.5" y1="52.5" x2="17082.5" y2="33552.5" gradientUnits="userSpaceOnUse">
<stop stop-color="#4B5563" stop-opacity="0.64"/>
<stop offset="1" stop-color="#4B5563" stop-opacity="0"/>
</linearGradient>
<linearGradient id="paint5_linear_1_31" x1="15498.5" y1="30368.5" x2="15498.5" y2="68.5" gradientUnits="userSpaceOnUse">
<stop stop-color="#4B5563"/>
<stop offset="1" stop-color="#4B5563" stop-opacity="0"/>
</linearGradient>
<linearGradient id="paint6_linear_1_31" x1="18666.5" y1="36736.5" x2="18666.5" y2="36.5" gradientUnits="userSpaceOnUse">
<stop stop-color="#4B5563" stop-opacity="0.64"/>
<stop offset="1" stop-color="#4B5563" stop-opacity="0"/>
</linearGradient>
<linearGradient id="paint7_linear_1_31" x1="12281" y1="101" x2="12281" y2="23901" gradientUnits="userSpaceOnUse">
<stop stop-color="#BFDBFE" stop-opacity="0.48"/>
<stop offset="0.558746" stop-color="#6BA7CC"/>
<stop offset="1" stop-color="#BFDBFE" stop-opacity="0.24"/>
</linearGradient>
<linearGradient id="paint8_linear_1_31" x1="6574" y1="333.27" x2="6574" y2="13752" gradientUnits="userSpaceOnUse">
<stop stop-color="#111827" stop-opacity="0.64"/>
<stop offset="1" stop-color="#111827" stop-opacity="0"/>
</linearGradient>
<linearGradient id="paint9_linear_1_31" x1="1187.3" y1="12958" x2="13078.4" y2="567.697" gradientUnits="userSpaceOnUse">
<stop stop-color="#EC4899"/>
<stop offset="1" stop-color="#AEDBF0"/>
</linearGradient>
<linearGradient id="paint10_linear_1_31" x1="7123" y1="12759" x2="7123" y2="159" gradientUnits="userSpaceOnUse">
<stop stop-color="#BFDBFE" stop-opacity="0.24"/>
<stop offset="0.558746" stop-color="#AEDBF0"/>
<stop offset="1" stop-color="#BFDBFE" stop-opacity="0.24"/>
</linearGradient>
<linearGradient id="paint11_linear_1_31" x1="4458.94" y1="288.63" x2="4458.94" y2="8182" gradientUnits="userSpaceOnUse">
<stop stop-color="#111827" stop-opacity="0.64"/>
<stop offset="1" stop-color="#111827" stop-opacity="0"/>
</linearGradient>
<linearGradient id="paint12_linear_1_31" x1="415.303" y1="12958" x2="12306.4" y2="567.697" gradientUnits="userSpaceOnUse">
<stop stop-color="#EC4899"/>
<stop offset="1" stop-color="#3B82F6"/>
</linearGradient>
<linearGradient id="paint13_linear_1_31" x1="6351" y1="12759" x2="6351" y2="159" gradientUnits="userSpaceOnUse">
<stop stop-color="#BFDBFE" stop-opacity="0.24"/>
<stop offset="0.558746" stop-color="#AEDBF0"/>
<stop offset="1" stop-color="#BFDBFE" stop-opacity="0.24"/>
</linearGradient>
<linearGradient id="paint14_linear_1_31" x1="3686.94" y1="288.63" x2="3686.94" y2="8182" gradientUnits="userSpaceOnUse">
<stop stop-color="#111827" stop-opacity="0.64"/>
<stop offset="1" stop-color="#111827" stop-opacity="0"/>
</linearGradient>
<clipPath id="clip0_1_31">
<rect width="25" height="36" fill="white" transform="translate(98 204)"/>
</clipPath>
</defs>
</svg>
