<svg width="1124" height="484" viewBox="0 0 1124 484" fill="none" xmlns="http://www.w3.org/2000/svg">
<g style="mix-blend-mode:overlay" filter="url(#filter0_f_1_30)">
<path d="M801.81 242.8C799.843 242.8 798.241 241.185 798.241 239.2C798.241 238.538 797.71 238 797.052 238C796.394 238 795.862 238.538 795.862 239.2C795.862 241.185 794.261 242.8 792.293 242.8C791.635 242.8 791.103 243.338 791.103 244C791.103 244.662 791.635 245.2 792.293 245.2C794.261 245.2 795.862 246.815 795.862 248.8C795.862 249.462 796.394 250 797.052 250C797.71 250 798.241 249.462 798.241 248.8C798.241 246.815 799.843 245.2 801.81 245.2C802.468 245.2 803 244.662 803 244C803 243.338 802.468 242.8 801.81 242.8Z" fill="#BFDBFE"/>
</g>
<g style="mix-blend-mode:overlay" filter="url(#filter1_f_1_30)">
<path d="M843.81 273.8C841.843 273.8 840.241 272.185 840.241 270.2C840.241 269.538 839.71 269 839.052 269C838.394 269 837.862 269.538 837.862 270.2C837.862 272.185 836.261 273.8 834.293 273.8C833.635 273.8 833.103 274.338 833.103 275C833.103 275.662 833.635 276.2 834.293 276.2C836.261 276.2 837.862 277.815 837.862 279.8C837.862 280.462 838.394 281 839.052 281C839.71 281 840.241 280.462 840.241 279.8C840.241 277.815 841.843 276.2 843.81 276.2C844.468 276.2 845 275.662 845 275C845 274.338 844.468 273.8 843.81 273.8Z" fill="#BFDBFE" fill-opacity="0.48"/>
</g>
<g style="mix-blend-mode:overlay" filter="url(#filter2_f_1_30)">
<path d="M780.81 208.8C778.843 208.8 777.241 207.185 777.241 205.2C777.241 204.538 776.71 204 776.052 204C775.394 204 774.862 204.538 774.862 205.2C774.862 207.185 773.261 208.8 771.293 208.8C770.635 208.8 770.103 209.338 770.103 210C770.103 210.662 770.635 211.2 771.293 211.2C773.261 211.2 774.862 212.815 774.862 214.8C774.862 215.462 775.394 216 776.052 216C776.71 216 777.241 215.462 777.241 214.8C777.241 212.815 778.843 211.2 780.81 211.2C781.468 211.2 782 210.662 782 210C782 209.338 781.468 208.8 780.81 208.8Z" fill="#BFDBFE" fill-opacity="0.24"/>
</g>
<g style="mix-blend-mode:overlay" opacity="0.64" filter="url(#filter3_f_1_30)">
<path d="M855.81 208.8C853.843 208.8 852.241 207.185 852.241 205.2C852.241 204.538 851.71 204 851.052 204C850.394 204 849.862 204.538 849.862 205.2C849.862 207.185 848.261 208.8 846.293 208.8C845.635 208.8 845.103 209.338 845.103 210C845.103 210.662 845.635 211.2 846.293 211.2C848.261 211.2 849.862 212.815 849.862 214.8C849.862 215.462 850.394 216 851.052 216C851.71 216 852.241 215.462 852.241 214.8C852.241 212.815 853.843 211.2 855.81 211.2C856.468 211.2 857 210.662 857 210C857 209.338 856.468 208.8 855.81 208.8Z" fill="#BFDBFE"/>
</g>
<g filter="url(#filter4_f_1_30)">
<path d="M802 244H866" stroke="url(#paint0_linear_1_30)"/>
</g>
<g style="mix-blend-mode:overlay" filter="url(#filter5_f_1_30)">
<path d="M293.81 242.8C291.843 242.8 290.241 241.185 290.241 239.2C290.241 238.538 289.71 238 289.052 238C288.394 238 287.862 238.538 287.862 239.2C287.862 241.185 286.261 242.8 284.293 242.8C283.635 242.8 283.103 243.338 283.103 244C283.103 244.662 283.635 245.2 284.293 245.2C286.261 245.2 287.862 246.815 287.862 248.8C287.862 249.462 288.394 250 289.052 250C289.71 250 290.241 249.462 290.241 248.8C290.241 246.815 291.843 245.2 293.81 245.2C294.468 245.2 295 244.662 295 244C295 243.338 294.468 242.8 293.81 242.8Z" fill="#BFDBFE"/>
</g>
<g style="mix-blend-mode:overlay" filter="url(#filter6_f_1_30)">
<path d="M335.81 273.8C333.843 273.8 332.241 272.185 332.241 270.2C332.241 269.538 331.71 269 331.052 269C330.394 269 329.862 269.538 329.862 270.2C329.862 272.185 328.261 273.8 326.293 273.8C325.635 273.8 325.103 274.338 325.103 275C325.103 275.662 325.635 276.2 326.293 276.2C328.261 276.2 329.862 277.815 329.862 279.8C329.862 280.462 330.394 281 331.052 281C331.71 281 332.241 280.462 332.241 279.8C332.241 277.815 333.843 276.2 335.81 276.2C336.468 276.2 337 275.662 337 275C337 274.338 336.468 273.8 335.81 273.8Z" fill="#BFDBFE" fill-opacity="0.48"/>
</g>
<g style="mix-blend-mode:overlay" filter="url(#filter7_f_1_30)">
<path d="M272.81 208.8C270.843 208.8 269.241 207.185 269.241 205.2C269.241 204.538 268.71 204 268.052 204C267.394 204 266.862 204.538 266.862 205.2C266.862 207.185 265.261 208.8 263.293 208.8C262.635 208.8 262.103 209.338 262.103 210C262.103 210.662 262.635 211.2 263.293 211.2C265.261 211.2 266.862 212.815 266.862 214.8C266.862 215.462 267.394 216 268.052 216C268.71 216 269.241 215.462 269.241 214.8C269.241 212.815 270.843 211.2 272.81 211.2C273.468 211.2 274 210.662 274 210C274 209.338 273.468 208.8 272.81 208.8Z" fill="#BFDBFE" fill-opacity="0.24"/>
</g>
<g style="mix-blend-mode:overlay" opacity="0.64" filter="url(#filter8_f_1_30)">
<path d="M347.81 208.8C345.843 208.8 344.241 207.185 344.241 205.2C344.241 204.538 343.71 204 343.052 204C342.394 204 341.862 204.538 341.862 205.2C341.862 207.185 340.261 208.8 338.293 208.8C337.635 208.8 337.103 209.338 337.103 210C337.103 210.662 337.635 211.2 338.293 211.2C340.261 211.2 341.862 212.815 341.862 214.8C341.862 215.462 342.394 216 343.052 216C343.71 216 344.241 215.462 344.241 214.8C344.241 212.815 345.843 211.2 347.81 211.2C348.468 211.2 349 210.662 349 210C349 209.338 348.468 208.8 347.81 208.8Z" fill="#BFDBFE"/>
</g>
<g filter="url(#filter9_f_1_30)">
<path d="M281 244H345" stroke="url(#paint1_linear_1_30)"/>
</g>
<g filter="url(#filter10_f_1_30)">
<path d="M682 242C682 175.726 628.274 122 562 122C495.726 122 442 175.726 442 242C442 308.274 495.726 362 562 362C628.274 362 682 308.274 682 242Z" fill="url(#paint2_linear_1_30)"/>
</g>
<path d="M697.5 242C697.5 167.165 636.835 106.5 562 106.5C487.165 106.5 426.5 167.165 426.5 242C426.5 316.835 487.165 377.5 562 377.5C636.835 377.5 697.5 316.835 697.5 242Z" stroke="url(#paint3_linear_1_30)"/>
<path d="M729.5 242C729.5 149.492 654.508 74.5 562 74.5C469.492 74.5 394.5 149.492 394.5 242C394.5 334.508 469.492 409.5 562 409.5C654.508 409.5 729.5 334.508 729.5 242Z" stroke="url(#paint4_linear_1_30)"/>
<path d="M713.5 242C713.5 158.329 645.671 90.5 562 90.5C478.329 90.5 410.5 158.329 410.5 242C410.5 325.671 478.329 393.5 562 393.5C645.671 393.5 713.5 325.671 713.5 242Z" stroke="url(#paint5_linear_1_30)"/>
<path d="M745.5 242C745.5 140.656 663.344 58.5 562 58.5C460.656 58.5 378.5 140.656 378.5 242C378.5 343.344 460.656 425.5 562 425.5C663.344 425.5 745.5 343.344 745.5 242Z" stroke="url(#paint6_linear_1_30)"/>
<path d="M681 242C681 176.278 627.722 123 562 123C496.278 123 443 176.278 443 242C443 307.722 496.278 361 562 361C627.722 361 681 307.722 681 242Z" fill="#1F2937" stroke="url(#paint7_linear_1_30)" stroke-width="2"/>
<path d="M630 242C630 204.445 599.555 174 562 174C524.445 174 494 204.445 494 242C494 279.555 524.445 310 562 310C599.555 310 630 279.555 630 242Z" fill="url(#paint8_linear_1_30)"/>
<g filter="url(#filter11_d_1_30)">
<path d="M566 236.867L581.503 214H588.529L569.454 241.65L589 270H582.014L566 246.472V236.867Z" fill="white"/>
<path d="M560 236.867L544.497 214H537.471L556.546 241.65L546.773 255.825L537 270H543.986L560 246.472V236.867Z" fill="white"/>
</g>
<g filter="url(#filter12_f_1_30)">
<path d="M607.103 385.388C605.232 385.996 603.21 384.955 602.596 383.067C602.392 382.437 601.72 382.09 601.094 382.294C600.469 382.497 600.129 383.173 600.334 383.803C600.947 385.69 599.923 387.721 598.052 388.329C597.426 388.533 597.086 389.208 597.291 389.838C597.496 390.468 598.168 390.815 598.793 390.612C600.665 390.004 602.687 391.045 603.3 392.933C603.505 393.563 604.177 393.91 604.802 393.706C605.428 393.503 605.768 392.827 605.563 392.198C604.95 390.31 605.973 388.279 607.845 387.671C608.471 387.468 608.81 386.792 608.605 386.162C608.401 385.532 607.729 385.185 607.103 385.388Z" fill="#BFDBFE"/>
</g>
<g filter="url(#filter13_f_1_30)">
<path d="M506.699 117.835C504.931 118.698 502.783 117.948 501.913 116.164C501.623 115.569 500.909 115.319 500.318 115.607C499.727 115.896 499.484 116.612 499.775 117.207C500.645 118.991 499.914 121.145 498.145 122.007C497.554 122.296 497.312 123.012 497.602 123.608C497.892 124.203 498.606 124.453 499.197 124.165C500.966 123.302 503.113 124.052 503.983 125.836C504.274 126.431 504.987 126.681 505.579 126.393C506.17 126.104 506.412 125.388 506.122 124.793C505.252 123.009 505.983 120.855 507.751 119.993C508.343 119.704 508.585 118.988 508.295 118.392C508.004 117.797 507.291 117.547 506.699 117.835Z" fill="#BFDBFE"/>
</g>
<g filter="url(#filter14_f_1_30)">
<path d="M1012 244C1012 208.654 983.346 180 948 180C912.654 180 884 208.654 884 244C884 279.346 912.654 308 948 308C983.346 308 1012 279.346 1012 244Z" fill="url(#paint9_linear_1_30)" fill-opacity="0.48"/>
</g>
<path d="M1011 244C1011 209.206 982.794 181 948 181C913.206 181 885 209.206 885 244C885 278.794 913.206 307 948 307C982.794 307 1011 278.794 1011 244Z" fill="#1F2937" stroke="url(#paint10_linear_1_30)" stroke-width="2"/>
<path d="M988 244C988 221.909 970.091 204 948 204C925.909 204 908 221.909 908 244C908 266.091 925.909 284 948 284C970.091 284 988 266.091 988 244Z" fill="url(#paint11_linear_1_30)"/>
<g filter="url(#filter15_d_1_30)">
<path d="M948 235C949.692 235 951.063 233.657 951.063 232C951.063 230.343 949.692 229 948 229C946.308 229 944.937 230.343 944.937 232C944.937 233.657 946.308 235 948 235Z" stroke="#BFDBFE" stroke-width="2" stroke-linecap="square"/>
<path d="M936.063 255.25C937.755 255.25 939.126 253.907 939.126 252.25C939.126 250.593 937.755 249.25 936.063 249.25C934.371 249.25 933 250.593 933 252.25C933 253.907 934.371 255.25 936.063 255.25Z" stroke="#BFDBFE" stroke-width="2" stroke-linecap="square"/>
<path d="M959.937 255.25C961.629 255.25 963 253.907 963 252.25C963 250.593 961.629 249.25 959.937 249.25C958.245 249.25 956.874 250.593 956.874 252.25C956.874 253.907 958.245 255.25 959.937 255.25Z" stroke="#BFDBFE" stroke-width="2" stroke-linecap="square"/>
<path d="M941.109 233.829C935.53 236.979 932.925 243.495 934.837 249.517" stroke="#BFDBFE" stroke-width="2" stroke-linecap="square"/>
<path d="M958.118 254.645C953.763 259.293 946.695 260.351 941.121 257.189" stroke="#BFDBFE" stroke-width="2" stroke-linecap="square"/>
<path d="M961.784 245.5C961.781 239.19 957.314 233.723 951.028 232.337" stroke="#BFDBFE" stroke-width="2" stroke-linecap="square"/>
</g>
<g filter="url(#filter16_f_1_30)">
<path d="M240 244C240 208.654 211.346 180 176 180C140.654 180 112 208.654 112 244C112 279.346 140.654 308 176 308C211.346 308 240 279.346 240 244Z" fill="url(#paint12_linear_1_30)" fill-opacity="0.48"/>
</g>
<path d="M239 244C239 209.206 210.794 181 176 181C141.206 181 113 209.206 113 244C113 278.794 141.206 307 176 307C210.794 307 239 278.794 239 244Z" fill="#1F2937" stroke="url(#paint13_linear_1_30)" stroke-width="2"/>
<path d="M216 244C216 221.909 198.091 204 176 204C153.909 204 136 221.909 136 244C136 266.091 153.909 284 176 284C198.091 284 216 266.091 216 244Z" fill="url(#paint14_linear_1_30)"/>
<g filter="url(#filter17_d_1_30)">
<g clip-path="url(#clip0_1_30)">
<path d="M177.79 226.019C173.051 226.087 168.529 228.011 165.201 231.375C161.872 234.739 160.004 239.274 160 244C160.004 248.726 161.872 253.261 165.201 256.625C168.529 259.989 173.051 261.913 177.79 261.981V247.598C177.787 247.599 177.783 247.599 177.78 247.6C177.306 247.6 176.836 247.507 176.398 247.326C175.96 247.145 175.562 246.88 175.227 246.546C174.892 246.211 174.626 245.814 174.444 245.378C174.263 244.941 174.17 244.473 174.17 244C174.17 243.527 174.263 243.059 174.444 242.622C174.626 242.186 174.892 241.789 175.227 241.454C175.562 241.12 175.96 240.855 176.398 240.674C176.836 240.493 177.306 240.4 177.78 240.4C177.783 240.401 177.787 240.401 177.79 240.402V226.019Z" fill="#BFDBFE"/>
<path d="M170.559 233.2C170.559 237.176 173.792 240.4 177.78 240.4C181.767 240.4 185 237.176 185 233.2C185 229.224 181.767 226 177.78 226C173.792 226 170.559 229.224 170.559 233.2Z" fill="#BFDBFE"/>
<path d="M170.559 254.8C170.559 258.776 173.792 262 177.78 262C181.767 262 185 258.776 185 254.8C185 250.824 181.767 247.6 177.78 247.6C173.792 247.6 170.559 250.824 170.559 254.8Z" fill="#BFDBFE"/>
</g>
</g>
<defs>
<filter id="filter0_f_1_30" x="783.103" y="230" width="27.8965" height="28" filterUnits="userSpaceOnUse" color-interpolation-filters="sRGB">
<feFlood flood-opacity="0" result="BackgroundImageFix"/>
<feBlend mode="normal" in="SourceGraphic" in2="BackgroundImageFix" result="shape"/>
<feGaussianBlur stdDeviation="4" result="effect1_foregroundBlur_1_30"/>
</filter>
<filter id="filter1_f_1_30" x="825.103" y="261" width="27.8965" height="28" filterUnits="userSpaceOnUse" color-interpolation-filters="sRGB">
<feFlood flood-opacity="0" result="BackgroundImageFix"/>
<feBlend mode="normal" in="SourceGraphic" in2="BackgroundImageFix" result="shape"/>
<feGaussianBlur stdDeviation="4" result="effect1_foregroundBlur_1_30"/>
</filter>
<filter id="filter2_f_1_30" x="762.103" y="196" width="27.8965" height="28" filterUnits="userSpaceOnUse" color-interpolation-filters="sRGB">
<feFlood flood-opacity="0" result="BackgroundImageFix"/>
<feBlend mode="normal" in="SourceGraphic" in2="BackgroundImageFix" result="shape"/>
<feGaussianBlur stdDeviation="4" result="effect1_foregroundBlur_1_30"/>
</filter>
<filter id="filter3_f_1_30" x="837.103" y="196" width="27.8965" height="28" filterUnits="userSpaceOnUse" color-interpolation-filters="sRGB">
<feFlood flood-opacity="0" result="BackgroundImageFix"/>
<feBlend mode="normal" in="SourceGraphic" in2="BackgroundImageFix" result="shape"/>
<feGaussianBlur stdDeviation="4" result="effect1_foregroundBlur_1_30"/>
</filter>
<filter id="filter4_f_1_30" x="702" y="143.5" width="264" height="201" filterUnits="userSpaceOnUse" color-interpolation-filters="sRGB">
<feFlood flood-opacity="0" result="BackgroundImageFix"/>
<feBlend mode="normal" in="SourceGraphic" in2="BackgroundImageFix" result="shape"/>
<feGaussianBlur stdDeviation="50" result="effect1_foregroundBlur_1_30"/>
</filter>
<filter id="filter5_f_1_30" x="275.103" y="230" width="27.8965" height="28" filterUnits="userSpaceOnUse" color-interpolation-filters="sRGB">
<feFlood flood-opacity="0" result="BackgroundImageFix"/>
<feBlend mode="normal" in="SourceGraphic" in2="BackgroundImageFix" result="shape"/>
<feGaussianBlur stdDeviation="4" result="effect1_foregroundBlur_1_30"/>
</filter>
<filter id="filter6_f_1_30" x="317.103" y="261" width="27.8965" height="28" filterUnits="userSpaceOnUse" color-interpolation-filters="sRGB">
<feFlood flood-opacity="0" result="BackgroundImageFix"/>
<feBlend mode="normal" in="SourceGraphic" in2="BackgroundImageFix" result="shape"/>
<feGaussianBlur stdDeviation="4" result="effect1_foregroundBlur_1_30"/>
</filter>
<filter id="filter7_f_1_30" x="254.103" y="196" width="27.8965" height="28" filterUnits="userSpaceOnUse" color-interpolation-filters="sRGB">
<feFlood flood-opacity="0" result="BackgroundImageFix"/>
<feBlend mode="normal" in="SourceGraphic" in2="BackgroundImageFix" result="shape"/>
<feGaussianBlur stdDeviation="4" result="effect1_foregroundBlur_1_30"/>
</filter>
<filter id="filter8_f_1_30" x="329.103" y="196" width="27.8965" height="28" filterUnits="userSpaceOnUse" color-interpolation-filters="sRGB">
<feFlood flood-opacity="0" result="BackgroundImageFix"/>
<feBlend mode="normal" in="SourceGraphic" in2="BackgroundImageFix" result="shape"/>
<feGaussianBlur stdDeviation="4" result="effect1_foregroundBlur_1_30"/>
</filter>
<filter id="filter9_f_1_30" x="181" y="143.5" width="264" height="201" filterUnits="userSpaceOnUse" color-interpolation-filters="sRGB">
<feFlood flood-opacity="0" result="BackgroundImageFix"/>
<feBlend mode="normal" in="SourceGraphic" in2="BackgroundImageFix" result="shape"/>
<feGaussianBlur stdDeviation="50" result="effect1_foregroundBlur_1_30"/>
</filter>
<filter id="filter10_f_1_30" x="342" y="22" width="440" height="440" filterUnits="userSpaceOnUse" color-interpolation-filters="sRGB">
<feFlood flood-opacity="0" result="BackgroundImageFix"/>
<feBlend mode="normal" in="SourceGraphic" in2="BackgroundImageFix" result="shape"/>
<feGaussianBlur stdDeviation="50" result="effect1_foregroundBlur_1_30"/>
</filter>
<filter id="filter11_d_1_30" x="529" y="206" width="68" height="72" filterUnits="userSpaceOnUse" color-interpolation-filters="sRGB">
<feFlood flood-opacity="0" result="BackgroundImageFix"/>
<feColorMatrix in="SourceAlpha" type="matrix" values="0 0 0 0 0 0 0 0 0 0 0 0 0 0 0 0 0 0 127 0" result="hardAlpha"/>
<feOffset/>
<feGaussianBlur stdDeviation="4"/>
<feColorMatrix type="matrix" values="0 0 0 0 0.231373 0 0 0 0 0.509804 0 0 0 0 0.964706 0 0 0 0.48 0"/>
<feBlend mode="normal" in2="BackgroundImageFix" result="effect1_dropShadow_1_30"/>
<feBlend mode="normal" in="SourceGraphic" in2="effect1_dropShadow_1_30" result="shape"/>
</filter>
<filter id="filter12_f_1_30" x="593.232" y="378.236" width="19.4334" height="19.5289" filterUnits="userSpaceOnUse" color-interpolation-filters="sRGB">
<feFlood flood-opacity="0" result="BackgroundImageFix"/>
<feBlend mode="normal" in="SourceGraphic" in2="BackgroundImageFix" result="shape"/>
<feGaussianBlur stdDeviation="2" result="effect1_foregroundBlur_1_30"/>
</filter>
<filter id="filter13_f_1_30" x="493.479" y="111.487" width="18.938" height="19.0253" filterUnits="userSpaceOnUse" color-interpolation-filters="sRGB">
<feFlood flood-opacity="0" result="BackgroundImageFix"/>
<feBlend mode="normal" in="SourceGraphic" in2="BackgroundImageFix" result="shape"/>
<feGaussianBlur stdDeviation="2" result="effect1_foregroundBlur_1_30"/>
</filter>
<filter id="filter14_f_1_30" x="834" y="130" width="228" height="228" filterUnits="userSpaceOnUse" color-interpolation-filters="sRGB">
<feFlood flood-opacity="0" result="BackgroundImageFix"/>
<feBlend mode="normal" in="SourceGraphic" in2="BackgroundImageFix" result="shape"/>
<feGaussianBlur stdDeviation="25" result="effect1_foregroundBlur_1_30"/>
</filter>
<filter id="filter15_d_1_30" x="924" y="220" width="48" height="48.0004" filterUnits="userSpaceOnUse" color-interpolation-filters="sRGB">
<feFlood flood-opacity="0" result="BackgroundImageFix"/>
<feColorMatrix in="SourceAlpha" type="matrix" values="0 0 0 0 0 0 0 0 0 0 0 0 0 0 0 0 0 0 127 0" result="hardAlpha"/>
<feOffset/>
<feGaussianBlur stdDeviation="4"/>
<feColorMatrix type="matrix" values="0 0 0 0 0.231373 0 0 0 0 0.509804 0 0 0 0 0.964706 0 0 0 0.48 0"/>
<feBlend mode="normal" in2="BackgroundImageFix" result="effect1_dropShadow_1_30"/>
<feBlend mode="normal" in="SourceGraphic" in2="effect1_dropShadow_1_30" result="shape"/>
</filter>
<filter id="filter16_f_1_30" x="62" y="130" width="228" height="228" filterUnits="userSpaceOnUse" color-interpolation-filters="sRGB">
<feFlood flood-opacity="0" result="BackgroundImageFix"/>
<feBlend mode="normal" in="SourceGraphic" in2="BackgroundImageFix" result="shape"/>
<feGaussianBlur stdDeviation="25" result="effect1_foregroundBlur_1_30"/>
</filter>
<filter id="filter17_d_1_30" x="152" y="218" width="41" height="52" filterUnits="userSpaceOnUse" color-interpolation-filters="sRGB">
<feFlood flood-opacity="0" result="BackgroundImageFix"/>
<feColorMatrix in="SourceAlpha" type="matrix" values="0 0 0 0 0 0 0 0 0 0 0 0 0 0 0 0 0 0 127 0" result="hardAlpha"/>
<feOffset/>
<feGaussianBlur stdDeviation="4"/>
<feColorMatrix type="matrix" values="0 0 0 0 0.231373 0 0 0 0 0.509804 0 0 0 0 0.964706 0 0 0 0.48 0"/>
<feBlend mode="normal" in2="BackgroundImageFix" result="effect1_dropShadow_1_30"/>
<feBlend mode="normal" in="SourceGraphic" in2="effect1_dropShadow_1_30" result="shape"/>
</filter>
<linearGradient id="paint0_linear_1_30" x1="-nan" y1="-nan" x2="-nan" y2="-nan" gradientUnits="userSpaceOnUse">
<stop stop-color="#3B82F6" stop-opacity="0.64"/>
<stop offset="1" stop-color="#F9FAFB" stop-opacity="0"/>
</linearGradient>
<linearGradient id="paint1_linear_1_30" x1="-nan" y1="-nan" x2="-nan" y2="-nan" gradientUnits="userSpaceOnUse">
<stop stop-color="#3B82F6" stop-opacity="0.64"/>
<stop offset="1" stop-color="#F9FAFB" stop-opacity="0"/>
</linearGradient>
<linearGradient id="paint2_linear_1_30" x1="1126.94" y1="24122" x2="23422.7" y2="890.182" gradientUnits="userSpaceOnUse">
<stop stop-color="#EC4899"/>
<stop offset="1" stop-color="#3B82F6"/>
</linearGradient>
<linearGradient id="paint3_linear_1_30" x1="13976.5" y1="106.5" x2="13976.5" y2="27206.5" gradientUnits="userSpaceOnUse">
<stop stop-color="#4B5563"/>
<stop offset="1" stop-color="#4B5563" stop-opacity="0"/>
</linearGradient>
<linearGradient id="paint4_linear_1_30" x1="17144.5" y1="74.5" x2="17144.5" y2="33574.5" gradientUnits="userSpaceOnUse">
<stop stop-color="#4B5563" stop-opacity="0.64"/>
<stop offset="1" stop-color="#4B5563" stop-opacity="0"/>
</linearGradient>
<linearGradient id="paint5_linear_1_30" x1="15560.5" y1="30390.5" x2="15560.5" y2="90.5" gradientUnits="userSpaceOnUse">
<stop stop-color="#4B5563"/>
<stop offset="1" stop-color="#4B5563" stop-opacity="0"/>
</linearGradient>
<linearGradient id="paint6_linear_1_30" x1="18728.5" y1="36758.5" x2="18728.5" y2="58.5" gradientUnits="userSpaceOnUse">
<stop stop-color="#4B5563" stop-opacity="0.64"/>
<stop offset="1" stop-color="#4B5563" stop-opacity="0"/>
</linearGradient>
<linearGradient id="paint7_linear_1_30" x1="12343" y1="123" x2="12343" y2="23923" gradientUnits="userSpaceOnUse">
<stop stop-color="#BFDBFE" stop-opacity="0.48"/>
<stop offset="0.558746" stop-color="#6BA7CC"/>
<stop offset="1" stop-color="#BFDBFE" stop-opacity="0.24"/>
</linearGradient>
<linearGradient id="paint8_linear_1_30" x1="6636" y1="355.27" x2="6636" y2="13774" gradientUnits="userSpaceOnUse">
<stop stop-color="#111827" stop-opacity="0.64"/>
<stop offset="1" stop-color="#111827" stop-opacity="0"/>
</linearGradient>
<linearGradient id="paint9_linear_1_30" x1="1249.3" y1="12980" x2="13140.4" y2="589.697" gradientUnits="userSpaceOnUse">
<stop stop-color="#EC4899"/>
<stop offset="1" stop-color="#AEDBF0"/>
</linearGradient>
<linearGradient id="paint10_linear_1_30" x1="7185" y1="12781" x2="7185" y2="181" gradientUnits="userSpaceOnUse">
<stop stop-color="#BFDBFE" stop-opacity="0.24"/>
<stop offset="0.558746" stop-color="#AEDBF0"/>
<stop offset="1" stop-color="#BFDBFE" stop-opacity="0.24"/>
</linearGradient>
<linearGradient id="paint11_linear_1_30" x1="4520.94" y1="310.63" x2="4520.94" y2="8204" gradientUnits="userSpaceOnUse">
<stop stop-color="#111827" stop-opacity="0.64"/>
<stop offset="1" stop-color="#111827" stop-opacity="0"/>
</linearGradient>
<linearGradient id="paint12_linear_1_30" x1="477.303" y1="12980" x2="12368.4" y2="589.697" gradientUnits="userSpaceOnUse">
<stop stop-color="#EC4899"/>
<stop offset="1" stop-color="#3B82F6"/>
</linearGradient>
<linearGradient id="paint13_linear_1_30" x1="6413" y1="12781" x2="6413" y2="181" gradientUnits="userSpaceOnUse">
<stop stop-color="#BFDBFE" stop-opacity="0.24"/>
<stop offset="0.558746" stop-color="#AEDBF0"/>
<stop offset="1" stop-color="#BFDBFE" stop-opacity="0.24"/>
</linearGradient>
<linearGradient id="paint14_linear_1_30" x1="3748.94" y1="310.63" x2="3748.94" y2="8204" gradientUnits="userSpaceOnUse">
<stop stop-color="#111827" stop-opacity="0.64"/>
<stop offset="1" stop-color="#111827" stop-opacity="0"/>
</linearGradient>
<clipPath id="clip0_1_30">
<rect width="25" height="36" fill="white" transform="translate(160 226)"/>
</clipPath>
</defs>
</svg>
